<svg width="26" height="12" viewBox="0 0 158 109" fill="none" xmlns="http://www.w3.org/2000/svg">
    <path d="M41.8191 71.5859C70.563 71.2253 94.0022 72.9787 117.221 72.5678C110.518 92.1117 98.6674 104.96 79.6378 105.816C59.1071 105.696 46.2463 90.7282 41.8191 71.5859V71.5859ZM109.499 70.836C105.475 68.4109 61.988 71.942 49.2433 72.972C49.3064 83.2409 63.1359 104.584 79.6378 105.816C97.7695 103.225 110.841 81.9078 109.499 70.836V70.836Z" fill="#46A046"/>
    <path d="M86.1099 87.6692C87.1249 85.7219 93.0546 87.6729 96.3941 91.0555L99.412 94.1111L95.3562 92.1644C93.1251 91.0944 89.9857 89.9258 88.3791 89.5687C86.6484 89.1851 85.7236 88.41 86.1099 87.6692Z" fill="#46A046"/>
    <path d="M73.8242 87.7556C72.8091 85.8084 66.8794 87.7594 63.5399 91.142L60.522 94.1976L64.5778 92.251C66.8089 91.181 69.9482 90.0123 71.5548 89.6551C73.2856 89.2716 74.2105 88.4964 73.8242 87.7556Z" fill="#46A046"/>
    <path d="M70.9054 93.6371C67.9476 91.3497 68.5644 91.1711 79.5821 91.124C88.2923 91.0899 90.9722 91.543 89.6708 92.8454C86.6356 95.8808 74.4702 96.394 70.9054 93.6371Z" fill="#46A046"/>
    <path d="M77.5067 101.311C76.6364 97.7434 82.5637 97.7224 82.0033 101.341C79.4695 110.603 79.8002 110.713 77.5067 101.311Z" fill="#46A046"/>
    <path fill-rule="evenodd" clip-rule="evenodd" d="M23.6298 69.44C15.8594 66.5508 7.83293 61.865 3.88944 57.3849C1.60332 54.7878 -0.142826 52.3046 0.0092239 51.8666C0.161161 51.4287 17.9483 39.5796 39.536 25.5352L78.7862 0L118.036 25.5244C139.623 39.5628 157.41 51.412 157.562 51.8558C157.714 52.2997 155.935 54.8251 153.609 57.4678C149.684 61.9265 140.042 66.5111 124.809 71.2785C99.6393 79.1562 45.0542 77.4061 23.6298 69.44V69.44ZM106.216 67.9858C123.313 65.5324 141.111 59.6179 145.289 55.0011C146.703 53.4382 144.193 51.6005 112.643 31.1018C82.8121 11.7194 78.2819 9.07972 77.0183 10.3433C75.7546 11.6069 76.111 12.4722 79.8214 17.1477C82.1595 20.0939 84.7283 24.061 85.5299 25.9636C86.9158 29.2528 86.8718 29.5163 84.6365 31.3285C82.6941 32.9033 81.2867 33.1301 76.5357 32.6347C73.3731 32.3051 70.7856 32.244 70.7856 32.4994C70.7856 32.7549 72.6651 33.9225 74.962 35.0943C80.1655 37.7489 87.1105 37.3333 91.6579 34.0953L94.7857 31.8682V34.3892C94.7857 42.1851 88.5346 46.1236 74.8123 46.9734L65.2857 47.5634L69.2737 49.3323C78.0998 53.2472 92.3895 54.2318 101.33 51.5411C104.004 50.7362 106.338 50.2232 106.516 50.401C107.53 51.4149 94.9237 58.5013 88.1973 60.6985C81.6166 62.8482 77.819 63.364 65.6227 63.7649C57.4187 64.0348 46.8467 63.7423 41.6227 63.105C36.4873 62.4769 30.2606 61.7404 27.7857 61.4683L23.2857 60.9735L27.2703 62.5178C32.6648 64.6085 48.8902 67.8477 59.554 68.9627C70.154 70.0711 95.3616 69.5434 106.216 67.9857V67.9858Z" fill="#8CBE3C"/>
</svg>
